<svg width="40" height="24" viewBox="0 0 40 24" fill="none" xmlns="http://www.w3.org/2000/svg">
  <g id="Brand">
    <path id="Vector" d="M29.4356 0H20.9294V24H29.4356V0Z" fill="black" />
    <path id="Vector_2" d="M15.7179 0H7.18091V24H15.7179V0Z" fill="black" />
    <path id="Vector_3"
      d="M7 14.6027V21.6081C14.3225 17.9469 35.9405 11.271 38.5095 11.3139C39.4007 11.3139 37.2281 9.72119 36.3312 9.72119C35.0316 9.72119 20.2148 10.8746 7.18074 14.6032"
      fill="#FFE84D" />
    <path id="Vector_4"
      d="M33.4757 8.71421C33.482 8.7816 33.6705 8.66563 34.043 8.95816C34.2201 9.09763 34.3553 9.28359 34.4337 9.49515C34.2362 9.64245 34.1046 9.86184 34.0675 10.1053C34.0607 10.1925 34.0607 10.2803 34.0675 10.3675C34.0675 10.5446 34.0247 10.8371 34.0675 10.9776C34.1098 11.1181 34.1098 11.2461 34.1098 11.3621V11.4295C34.1135 11.443 34.1135 11.4582 34.1098 11.4723C34.125 11.8609 34.3303 12.2172 34.6594 12.424C34.616 12.6528 34.5079 12.8649 34.348 13.0342C34.0184 13.3575 33.8231 13.3575 33.8231 13.3575C33.8231 13.3575 34.8114 14.0413 35.3912 13.2421C35.5333 13.0342 35.6425 12.8059 35.7145 12.5646H35.9893C37.1442 12.5128 38.272 12.1952 39.2844 11.6368C39.4724 11.523 39.626 11.361 39.7299 11.1667C39.7702 11.0915 39.801 11.0116 39.8214 10.9285C39.8454 10.8167 39.8511 10.7013 39.8396 10.5869C39.8323 10.4761 39.8099 10.3675 39.7728 10.2635C39.661 9.96162 39.4254 9.72185 39.1261 9.60432C38.0464 9.1974 36.8878 9.04278 35.7391 9.153L35.446 9.18329C35.3421 8.97069 35.2063 8.77481 35.0428 8.60347C34.827 8.3799 34.5904 8.30154 34.3674 8.30154C33.8857 8.30154 33.4705 8.6672 33.4746 8.71317"
      fill="black" />
  </g>
</svg>